<?xml version="1.0" encoding="UTF-8" standalone="no"?><svg xmlns="http://www.w3.org/2000/svg" xmlns:xlink="http://www.w3.org/1999/xlink" contentScriptType="application/ecmascript" contentStyleType="text/css" height="530px" preserveAspectRatio="none" style="width:865px;height:530px;" version="1.1" viewBox="0 0 865 530"
    width="865px" zoomAndPan="magnify"><defs><filter height="300%" id="fjkfbljfqw5sm" width="300%" x="-1" y="-1"><feGaussianBlur result="blurOut" stdDeviation="2.0"/><feColorMatrix in="blurOut" result="blurOut2" type="matrix" values="0 0 0 0 0 0 0 0 0 0 0 0 0 0 0 0 0 0 .4 0"/><feOffset dx="4.0" dy="4.0" in="blurOut2" result="blurOut3"/><feBlend in="SourceGraphic" in2="blurOut3" mode="normal"/></filter></defs><g><ellipse cx="413" cy="20" fill="#000000" filter="url(#fjkfbljfqw5sm)" rx="10" ry="10" style="stroke: none; stroke-width: 1.0;"/><rect fill="#FEFECE" filter="url(#fjkfbljfqw5sm)" height="34.1328" rx="12.5" ry="12.5" style="stroke: #A80036; stroke-width: 1.5;" width="134" x="346" y="50"/><text fill="#000000" font-family="sans-serif" font-size="12" lengthAdjust="spacingAndGlyphs" textLength="114" x="356" y="71.6016">首先对数组s进行排序</text><rect fill="#FEFECE" filter="url(#fjkfbljfqw5sm)" height="34.1328" rx="12.5" ry="12.5" style="stroke: #A80036; stroke-width: 1.5;" width="239" x="293.5" y="245.0879"/><text fill="#000000" font-family="sans-serif" font-size="12" lengthAdjust="spacingAndGlyphs" textLength="219" x="303.5" y="266.6895">begin=i+1, end=s.length-1, two= -a</text><polygon fill="#FEFECE" filter="url(#fjkfbljfqw5sm)" points="168.5,343.2207,291.5,343.2207,303.5,355.2207,291.5,367.2207,168.5,367.2207,156.5,355.2207,168.5,343.2207" style="stroke: #A80036; stroke-width: 1.5;"/><text fill="#000000" font-family="sans-serif" font-size="11" lengthAdjust="spacingAndGlyphs" textLength="18" x="234" y="377.8555">yes</text><text fill="#000000" font-family="sans-serif" font-size="11" lengthAdjust="spacingAndGlyphs" textLength="123" x="168.5" y="359.3779">s[begin]+s[end] == -a</text><rect fill="#FEFECE" filter="url(#fjkfbljfqw5sm)" height="34.1328" rx="12.5" ry="12.5" style="stroke: #A80036; stroke-width: 1.5;" width="304" x="78" y="399.3555"/><text fill="#000000" font-family="sans-serif" font-size="12" lengthAdjust="spacingAndGlyphs" textLength="280" x="92" y="420.957">triplets.add(a, s[begin], s[end]), begin++ end--</text><polygon fill="#FEFECE" filter="url(#fjkfbljfqw5sm)" points="414,343.2207,528,343.2207,540,355.2207,528,367.2207,414,367.2207,402,355.2207,414,343.2207" style="stroke: #A80036; stroke-width: 1.5;"/><text fill="#000000" font-family="sans-serif" font-size="11" lengthAdjust="spacingAndGlyphs" textLength="18" x="475" y="377.8555">yes</text><text fill="#000000" font-family="sans-serif" font-size="11" lengthAdjust="spacingAndGlyphs" textLength="114" x="414" y="359.3779">s[begin]+s[end] &gt; -a</text><rect fill="#FEFECE" filter="url(#fjkfbljfqw5sm)" height="34.1328" rx="12.5" ry="12.5" style="stroke: #A80036; stroke-width: 1.5;" width="56" x="443" y="399.3555"/><text fill="#000000" font-family="sans-serif" font-size="12" lengthAdjust="spacingAndGlyphs" textLength="36" x="453" y="420.957">end--</text><polygon fill="#FEFECE" filter="url(#fjkfbljfqw5sm)" points="572,343.2207,686,343.2207,698,355.2207,686,367.2207,572,367.2207,560,355.2207,572,343.2207" style="stroke: #A80036; stroke-width: 1.5;"/><text fill="#000000" font-family="sans-serif" font-size="11" lengthAdjust="spacingAndGlyphs" textLength="18" x="633" y="377.8555">yes</text><text fill="#000000" font-family="sans-serif" font-size="11" lengthAdjust="spacingAndGlyphs" textLength="114" x="572" y="359.3779">s[begin]+s[end] &lt; -a</text><rect fill="#FEFECE" filter="url(#fjkfbljfqw5sm)" height="34.1328" rx="12.5" ry="12.5" style="stroke: #A80036; stroke-width: 1.5;" width="72" x="593" y="399.3555"/><text fill="#000000" font-family="sans-serif" font-size="12" lengthAdjust="spacingAndGlyphs" textLength="52" x="603" y="420.957">begin++</text><polygon fill="#FEFECE" filter="url(#fjkfbljfqw5sm)" points="380.5,299.2207,445.5,299.2207,457.5,311.2207,445.5,323.2207,380.5,323.2207,368.5,311.2207,380.5,299.2207" style="stroke: #A80036; stroke-width: 1.5;"/><text fill="#000000" font-family="sans-serif" font-size="11" lengthAdjust="spacingAndGlyphs" textLength="65" x="380.5" y="315.3779">begin &lt; end</text><polygon fill="#FEFECE" filter="url(#fjkfbljfqw5sm)" points="380.5,196.6104,445.5,196.6104,457.5,208.6104,445.5,220.6104,380.5,220.6104,368.5,208.6104,380.5,196.6104" style="stroke: #A80036; stroke-width: 1.5;"/><text fill="#000000" font-family="sans-serif" font-size="11" lengthAdjust="spacingAndGlyphs" textLength="18" x="417" y="231.2451">yes</text><text fill="#000000" font-family="sans-serif" font-size="11" lengthAdjust="spacingAndGlyphs" textLength="65" x="380.5" y="212.7676">a[i] != a[i-1]</text><text fill="#000000" font-family="sans-serif" font-size="11" lengthAdjust="spacingAndGlyphs" textLength="14" x="457.5" y="206.29">no</text><polygon fill="#FEFECE" filter="url(#fjkfbljfqw5sm)" points="413,495.4883,425,507.4883,413,519.4883,401,507.4883,413,495.4883" style="stroke: #A80036; stroke-width: 1.5;"/><polygon fill="#FEFECE" filter="url(#fjkfbljfqw5sm)" points="394.5,148.1328,431.5,148.1328,443.5,160.1328,431.5,172.1328,394.5,172.1328,382.5,160.1328,394.5,148.1328" style="stroke: #A80036; stroke-width: 1.5;"/><text fill="#000000" font-family="sans-serif" font-size="11" lengthAdjust="spacingAndGlyphs" textLength="18" x="417" y="182.7676">yes</text><text fill="#000000" font-family="sans-serif" font-size="11" lengthAdjust="spacingAndGlyphs" textLength="37" x="394.5" y="164.29">a &lt;= 0</text><text fill="#000000" font-family="sans-serif" font-size="11" lengthAdjust="spacingAndGlyphs" textLength="14" x="443.5" y="157.8125">no</text><ellipse cx="477.5" cy="160.1328" fill="none" filter="url(#fjkfbljfqw5sm)" rx="10" ry="10" style="stroke: #000000; stroke-width: 1.0;"/><ellipse cx="478" cy="160.6328" fill="#000000" filter="url(#fjkfbljfqw5sm)" rx="6" ry="6" style="stroke: none; stroke-width: 1.0;"/><polygon fill="#FEFECE" filter="url(#fjkfbljfqw5sm)" points="339.5,104.1328,486.5,104.1328,498.5,116.1328,486.5,128.1328,339.5,128.1328,327.5,116.1328,339.5,104.1328" style="stroke: #A80036; stroke-width: 1.5;"/><text fill="#000000" font-family="sans-serif" font-size="11" lengthAdjust="spacingAndGlyphs" textLength="147" x="339.5" y="120.29">对数组S进行循环 i &lt; s.length</text><ellipse cx="24" cy="158.1328" fill="none" filter="url(#fjkfbljfqw5sm)" rx="10" ry="10" style="stroke: #000000; stroke-width: 1.0;"/><ellipse cx="24.5" cy="158.6328" fill="#000000" filter="url(#fjkfbljfqw5sm)" rx="6" ry="6" style="stroke: none; stroke-width: 1.0;"/><line style="stroke: #A80036; stroke-width: 1.5;" x1="413" x2="413" y1="30" y2="50"/><polygon fill="#A80036" points="409,40,413,50,417,40,413,44" style="stroke: #A80036; stroke-width: 1.0;"/><line style="stroke: #A80036; stroke-width: 1.5;" x1="230" x2="230" y1="367.2207" y2="399.3555"/><polygon fill="#A80036" points="226,389.3555,230,399.3555,234,389.3555,230,393.3555" style="stroke: #A80036; stroke-width: 1.0;"/><line style="stroke: #A80036; stroke-width: 1.5;" x1="230" x2="230" y1="433.4883" y2="453.4883"/><polygon fill="#A80036" points="226,443.4883,230,453.4883,234,443.4883,230,447.4883" style="stroke: #A80036; stroke-width: 1.0;"/><line style="stroke: #A80036; stroke-width: 1.5;" x1="471" x2="471" y1="367.2207" y2="399.3555"/><polygon fill="#A80036" points="467,389.3555,471,399.3555,475,389.3555,471,393.3555" style="stroke: #A80036; stroke-width: 1.0;"/><line style="stroke: #A80036; stroke-width: 1.5;" x1="471" x2="471" y1="433.4883" y2="453.4883"/><polygon fill="#A80036" points="467,443.4883,471,453.4883,475,443.4883,471,447.4883" style="stroke: #A80036; stroke-width: 1.0;"/><line style="stroke: #A80036; stroke-width: 1.5;" x1="629" x2="629" y1="367.2207" y2="399.3555"/><polygon fill="#A80036" points="625,389.3555,629,399.3555,633,389.3555,629,393.3555" style="stroke: #A80036; stroke-width: 1.0;"/><line style="stroke: #A80036; stroke-width: 1.5;" x1="629" x2="629" y1="433.4883" y2="453.4883"/><polygon fill="#A80036" points="625,443.4883,629,453.4883,633,443.4883,629,447.4883" style="stroke: #A80036; stroke-width: 1.0;"/><line style="stroke: #A80036; stroke-width: 1.5;" x1="303.5" x2="402" y1="355.2207" y2="355.2207"/><polygon fill="#A80036" points="392,351.2207,402,355.2207,392,359.2207,396,355.2207" style="stroke: #A80036; stroke-width: 1.0;"/><line style="stroke: #A80036; stroke-width: 1.5;" x1="540" x2="560" y1="355.2207" y2="355.2207"/><polygon fill="#A80036" points="550,351.2207,560,355.2207,550,359.2207,554,355.2207" style="stroke: #A80036; stroke-width: 1.0;"/><line style="stroke: #A80036; stroke-width: 1.5;" x1="413" x2="413" y1="323.2207" y2="328.2207"/><line style="stroke: #A80036; stroke-width: 1.5;" x1="413" x2="230" y1="328.2207" y2="328.2207"/><line style="stroke: #A80036; stroke-width: 1.5;" x1="230" x2="230" y1="328.2207" y2="343.2207"/><polygon fill="#A80036" points="226,333.2207,230,343.2207,234,333.2207,230,337.2207" style="stroke: #A80036; stroke-width: 1.0;"/><line style="stroke: #A80036; stroke-width: 1.5;" x1="698" x2="733" y1="355.2207" y2="355.2207"/><line style="stroke: #A80036; stroke-width: 1.5;" x1="733" x2="733" y1="355.2207" y2="453.4883"/><polygon fill="#A80036" points="729,443.4883,733,453.4883,737,443.4883,733,447.4883" style="stroke: #A80036; stroke-width: 1.0;"/><line style="stroke: #A80036; stroke-width: 1.5;" x1="230" x2="733" y1="453.4883" y2="453.4883"/><line style="stroke: #A80036; stroke-width: 1.5;" x1="413" x2="413" y1="453.4883" y2="463.4883"/><line style="stroke: #A80036; stroke-width: 1.5;" x1="413" x2="760" y1="463.4883" y2="463.4883"/><polygon fill="#A80036" points="756,410.9443,760,400.9443,764,410.9443,760,406.9443" style="stroke: #A80036; stroke-width: 1.5;"/><line style="stroke: #A80036; stroke-width: 1.5;" x1="760" x2="760" y1="311.2207" y2="463.4883"/><line style="stroke: #A80036; stroke-width: 1.5;" x1="760" x2="457.5" y1="311.2207" y2="311.2207"/><polygon fill="#A80036" points="467.5,307.2207,457.5,311.2207,467.5,315.2207,463.5,311.2207" style="stroke: #A80036; stroke-width: 1.0;"/><line style="stroke: #A80036; stroke-width: 1.5;" x1="368.5" x2="66" y1="311.2207" y2="311.2207"/><polygon fill="#A80036" points="62,396.9443,66,406.9443,70,396.9443,66,400.9443" style="stroke: #A80036; stroke-width: 1.5;"/><line style="stroke: #A80036; stroke-width: 1.5;" x1="66" x2="66" y1="311.2207" y2="475.4883"/><line style="stroke: #A80036; stroke-width: 1.5;" x1="66" x2="413" y1="475.4883" y2="475.4883"/><line style="stroke: #A80036; stroke-width: 1.5;" x1="413" x2="413" y1="475.4883" y2="495.4883"/><polygon fill="#A80036" points="409,485.4883,413,495.4883,417,485.4883,413,489.4883" style="stroke: #A80036; stroke-width: 1.0;"/><line style="stroke: #A80036; stroke-width: 1.5;" x1="413" x2="413" y1="279.2207" y2="299.2207"/><polygon fill="#A80036" points="409,289.2207,413,299.2207,417,289.2207,413,293.2207" style="stroke: #A80036; stroke-width: 1.0;"/><line style="stroke: #A80036; stroke-width: 1.5;" x1="413" x2="413" y1="220.6104" y2="245.0879"/><polygon fill="#A80036" points="409,235.0879,413,245.0879,417,235.0879,413,239.0879" style="stroke: #A80036; stroke-width: 1.0;"/><line style="stroke: #A80036; stroke-width: 1.5;" x1="457.5" x2="770" y1="208.6104" y2="208.6104"/><polygon fill="#A80036" points="766,357.1982,770,367.1982,774,357.1982,770,361.1982" style="stroke: #A80036; stroke-width: 1.5;"/><line style="stroke: #A80036; stroke-width: 1.5;" x1="770" x2="770" y1="208.6104" y2="507.4883"/><line style="stroke: #A80036; stroke-width: 1.5;" x1="770" x2="425" y1="507.4883" y2="507.4883"/><polygon fill="#A80036" points="435,503.4883,425,507.4883,435,511.4883,431,507.4883" style="stroke: #A80036; stroke-width: 1.0;"/><line style="stroke: #A80036; stroke-width: 1.5;" x1="413" x2="413" y1="172.1328" y2="196.6104"/><polygon fill="#A80036" points="409,186.6104,413,196.6104,417,186.6104,413,190.6104" style="stroke: #A80036; stroke-width: 1.0;"/><line style="stroke: #A80036; stroke-width: 1.5;" x1="443.5" x2="467.5" y1="160.1328" y2="160.1328"/><polygon fill="#A80036" points="457.5,156.1328,467.5,160.1328,457.5,164.1328,461.5,160.1328" style="stroke: #A80036; stroke-width: 1.0;"/><line style="stroke: #A80036; stroke-width: 1.5;" x1="413" x2="413" y1="519.4883" y2="529.4883"/><line style="stroke: #A80036; stroke-width: 1.5;" x1="413" x2="860" y1="529.4883" y2="529.4883"/><polygon fill="#A80036" points="856,353.1982,860,343.1982,864,353.1982,860,349.1982" style="stroke: #A80036; stroke-width: 1.5;"/><line style="stroke: #A80036; stroke-width: 1.5;" x1="860" x2="860" y1="116.1328" y2="529.4883"/><line style="stroke: #A80036; stroke-width: 1.5;" x1="860" x2="498.5" y1="116.1328" y2="116.1328"/><polygon fill="#A80036" points="508.5,112.1328,498.5,116.1328,508.5,120.1328,504.5,116.1328" style="stroke: #A80036; stroke-width: 1.0;"/><line style="stroke: #A80036; stroke-width: 1.5;" x1="413" x2="413" y1="128.1328" y2="148.1328"/><polygon fill="#A80036" points="409,138.1328,413,148.1328,417,138.1328,413,142.1328" style="stroke: #A80036; stroke-width: 1.0;"/><line style="stroke: #A80036; stroke-width: 1.5;" x1="327.5" x2="24" y1="116.1328" y2="116.1328"/><line style="stroke: #A80036; stroke-width: 1.5;" x1="24" x2="24" y1="116.1328" y2="148.1328"/><polygon fill="#A80036" points="20,138.1328,24,148.1328,28,138.1328,24,142.1328" style="stroke: #A80036; stroke-width: 1.0;"/><line style="stroke: #A80036; stroke-width: 1.5;" x1="413" x2="413" y1="84.1328" y2="104.1328"/><polygon fill="#A80036" points="409,94.1328,413,104.1328,417,94.1328,413,98.1328" style="stroke: #A80036; stroke-width: 1.0;"/><!--
@startuml
start
:首先对数组s进行排序;
while(对数组S进行循环 i < s.length)
  if(a <= 0) then (no)
  stop
  else(yes)
  if(a[i] != a[i-1]) then(yes)
   :begin=i+1, end=s.length-1, two= -a;
   while(begin < end)
    if(s[begin]+s[end] == -a) then(yes) 
     : triplets.add(a, s[begin], s[end]), begin++ end- -;
    elseif (s[begin]+s[end] > -a) then(yes)
    :end- -;
    elseif (s[begin]+s[end] < -a) then(yes)
    :begin++;
    endif
   endwhile
  else(no)
  endif
  endif
endwhile;

stop
@enduml

PlantUML version 1.2017.13(Thu May 11 00:52:33 CST 2017)
(GPL source distribution)
Java Runtime: Java(TM) SE Runtime Environment
JVM: Java HotSpot(TM) 64-Bit Server VM
Java Version: 1.7.0_80-b15
Operating System: Mac OS X
OS Version: 10.10.5
Default Encoding: UTF-8
Language: zh
Country: CN
--></g></svg>